<?xml version="1.0" encoding="UTF-8" standalone="no"?>
<svg
   xmlns:dc="http://purl.org/dc/elements/1.1/"
   xmlns:cc="http://creativecommons.org/ns#"
   xmlns:rdf="http://www.w3.org/1999/02/22-rdf-syntax-ns#"
   xmlns:svg="http://www.w3.org/2000/svg"
   xmlns="http://www.w3.org/2000/svg"
   xmlns:sodipodi="http://sodipodi.sourceforge.net/DTD/sodipodi-0.dtd"
   xmlns:inkscape="http://www.inkscape.org/namespaces/inkscape"
   version="1.1"
   id="svg797"
   xml:space="preserve"
   width="646.20197"
   height="176.29005"
   viewBox="0 0 646.20196 176.29005"
   sodipodi:docname="MM-Logo-wide.svg"
   inkscape:version="1.0.1 (3bc2e813f5, 2020-09-07)"><metadata
     id="metadata803"><rdf:RDF><cc:Work
         rdf:about=""><dc:format>image/svg+xml</dc:format><dc:type
           rdf:resource="http://purl.org/dc/dcmitype/StillImage" /><dc:title></dc:title></cc:Work></rdf:RDF></metadata><defs
     id="defs801" /><sodipodi:namedview
     pagecolor="#ffffff"
     bordercolor="#666666"
     borderopacity="1"
     objecttolerance="10"
     gridtolerance="10"
     guidetolerance="10"
     inkscape:pageopacity="0"
     inkscape:pageshadow="2"
     inkscape:window-width="2560"
     inkscape:window-height="1371"
     id="namedview799"
     showgrid="false"
     inkscape:zoom="2.9062121"
     inkscape:cx="323.10098"
     inkscape:cy="88.145027"
     inkscape:window-x="0"
     inkscape:window-y="0"
     inkscape:window-maximized="1"
     inkscape:current-layer="g805"
     showguides="true"
     inkscape:guide-bbox="true"
     fit-margin-top="0"
     fit-margin-left="0"
     fit-margin-right="0"
     fit-margin-bottom="0" /><g
     id="g805"
     inkscape:groupmode="layer"
     inkscape:label="ink_ext_XXXXXX"
     transform="matrix(1.3333333,0,0,-1.3333333,0,369.15959)"><g
       id="g948"
       transform="matrix(0.8965519,0,0,0.8965519,165.70044,144.65216)"><path
         d="M 0.589844,146.861 H 4.45859 L 27.5727,88.273 h 0.1878 l 23.2086,58.588 h 3.8684 V 84.7809 H 52.3848 V 144.031 H 52.1957 L 28.7984,84.7809 H 26.5348 L 3.04297,144.031 V 84.7809 H 0.589844 v 62.0801"
         style="fill:#107790;fill-opacity:1;fill-rule:nonzero;stroke:none;stroke-width:0.1"
         id="path809" /><path
         d="M 0.589844,146.861 H 4.45859 L 27.5727,88.273 h 0.1878 l 23.2086,58.588 h 3.8684 V 84.7809 H 52.3848 V 144.031 H 52.1957 L 28.7984,84.7809 H 26.5348 L 3.04297,144.031 V 84.7809 H 0.589844 Z"
         style="fill:none;stroke:#107790;stroke-width:1;stroke-linecap:butt;stroke-linejoin:miter;stroke-miterlimit:10;stroke-dasharray:none;stroke-opacity:1"
         id="path811" /><path
         d="M 95.6953,90.6328 V 108.274 L 82.016,106.671 c -8.1137,-0.756 -11.6992,-4.152 -11.6992,-10.6608 0,-6.2282 4.4348,-10.1903 11.8879,-10.1903 6.3207,0 10.8496,2.359 13.4906,4.8129 z m -27.8308,5.1871 c 0,7.6441 4.4335,11.7951 13.5847,12.8321 l 14.2461,1.509 v 7.075 c 0,8.113 -3.8676,10.945 -11.9812,10.945 -4.3403,0 -8.3024,-0.943 -11.7926,-2.077 v 1.887 c 3.7734,1.51 7.9242,2.265 12.5469,2.265 8.68,0 13.775,-3.584 13.775,-12.546 V 84.5949 h -2.2649 l -0.1887,4.0563 h -0.0945 c -2.0758,-1.9813 -6.7926,-4.7184 -13.8683,-4.7184 -8.3969,0 -13.9625,4.5293 -13.9625,11.8871"
         style="fill:#107790;fill-opacity:1;fill-rule:nonzero;stroke:none;stroke-width:0.1"
         id="path813" /><path
         d="M 95.6953,90.6328 V 108.274 L 82.016,106.671 c -8.1137,-0.756 -11.6992,-4.152 -11.6992,-10.6608 0,-6.2282 4.4348,-10.1903 11.8879,-10.1903 6.3207,0 10.8496,2.359 13.4906,4.8129 z m -27.8308,5.1871 c 0,7.6441 4.4335,11.7951 13.5847,12.8321 l 14.2461,1.509 v 7.075 c 0,8.113 -3.8676,10.945 -11.9812,10.945 -4.3403,0 -8.3024,-0.943 -11.7926,-2.077 v 1.887 c 3.7734,1.51 7.9242,2.265 12.5469,2.265 8.68,0 13.775,-3.584 13.775,-12.546 V 84.5949 h -2.2649 l -0.1887,4.0563 h -0.0945 c -2.0758,-1.9813 -6.7926,-4.7184 -13.8683,-4.7184 -8.3969,0 -13.9625,4.5293 -13.9625,11.8871 z"
         style="fill:none;stroke:#107790;stroke-width:1;stroke-linecap:butt;stroke-linejoin:miter;stroke-miterlimit:10;stroke-dasharray:none;stroke-opacity:1"
         id="path815" /><path
         d="m 112.964,129.597 h 2.358 v -5.755 h 0.189 c 2.83,3.018 7.925,6.225 14.057,6.225 0.943,0 1.981,-0.093 2.548,-0.281 v -2.171 c -0.756,0.19 -1.794,0.376 -2.642,0.376 -5.755,0 -10.85,-2.831 -14.057,-6.415 V 84.5949 h -2.453 v 45.0021"
         style="fill:#107790;fill-opacity:1;fill-rule:nonzero;stroke:none;stroke-width:0.1"
         id="path817" /><path
         d="m 112.964,129.597 h 2.358 v -5.755 h 0.189 c 2.83,3.018 7.925,6.225 14.057,6.225 0.943,0 1.981,-0.093 2.548,-0.281 v -2.171 c -0.756,0.19 -1.794,0.376 -2.642,0.376 -5.755,0 -10.85,-2.831 -14.057,-6.415 V 84.5949 h -2.453 z"
         style="fill:none;stroke:#107790;stroke-width:1;stroke-linecap:butt;stroke-linejoin:miter;stroke-miterlimit:10;stroke-dasharray:none;stroke-opacity:1"
         id="path819" /><path
         d="m 146.551,93.084 v 34.435 h -6.794 v 2.17 h 6.794 v 10.662 h 2.358 v -10.662 h 13.019 v -2.17 H 148.909 V 93.4621 c 0,-5 1.698,-7.075 7.642,-7.075 2.169,0 4.528,0.4711 6.321,1.0391 v -1.8891 c -1.321,-0.4711 -3.869,-1.3199 -6.793,-1.3199 -6.51,0 -9.528,3.0187 -9.528,8.8668"
         style="fill:#107790;fill-opacity:1;fill-rule:nonzero;stroke:none;stroke-width:0.1"
         id="path821" /><path
         d="m 146.551,93.084 v 34.435 h -6.794 v 2.17 h 6.794 v 10.662 h 2.358 v -10.662 h 13.019 v -2.17 H 148.909 V 93.4621 c 0,-5 1.698,-7.075 7.642,-7.075 2.169,0 4.528,0.4711 6.321,1.0391 v -1.8891 c -1.321,-0.4711 -3.869,-1.3199 -6.793,-1.3199 -6.51,0 -9.528,3.0187 -9.528,8.8668 z"
         style="fill:none;stroke:#107790;stroke-width:1;stroke-linecap:butt;stroke-linejoin:miter;stroke-miterlimit:10;stroke-dasharray:none;stroke-opacity:1"
         id="path823" /><path
         d="m 174.006,129.689 h 2.359 V 84.7809 h -2.359 z m -0.094,13.869 h 2.453 v -3.49 h -2.453 v 3.49"
         style="fill:#107790;fill-opacity:1;fill-rule:nonzero;stroke:none;stroke-width:0.1"
         id="path825" /><path
         d="m 174.006,129.689 h 2.359 V 84.7809 h -2.359 z m -0.094,13.869 h 2.453 v -3.49 h -2.453 z"
         style="fill:none;stroke:#107790;stroke-width:1;stroke-linecap:butt;stroke-linejoin:miter;stroke-miterlimit:10;stroke-dasharray:none;stroke-opacity:1"
         id="path827" /><path
         d="m 191.272,129.597 h 2.263 v -4.437 h 0.189 c 5.566,3.398 11.887,5.096 17.549,5.096 8.303,0 13.02,-3.303 13.02,-11.792 V 84.5949 h -2.358 v 33.4911 c 0,7.452 -3.586,10.095 -11.511,10.095 -5.472,0 -11.321,-1.699 -16.793,-5.191 V 84.5949 h -2.359 v 45.0021"
         style="fill:#107790;fill-opacity:1;fill-rule:nonzero;stroke:none;stroke-width:0.1"
         id="path829" /><path
         d="m 191.272,129.597 h 2.263 v -4.437 h 0.189 c 5.566,3.398 11.887,5.096 17.549,5.096 8.303,0 13.02,-3.303 13.02,-11.792 V 84.5949 h -2.358 v 33.4911 c 0,7.452 -3.586,10.095 -11.511,10.095 -5.472,0 -11.321,-1.699 -16.793,-5.191 V 84.5949 h -2.359 z"
         style="fill:none;stroke:#107790;stroke-width:1;stroke-linecap:butt;stroke-linejoin:miter;stroke-miterlimit:10;stroke-dasharray:none;stroke-opacity:1"
         id="path831" /><path
         d="m 235.807,87.141 v 2.077 c 3.49,-1.7008 7.357,-3.209 13.678,-3.209 9.529,0 12.643,4.3398 12.643,9.8109 0,6.2271 -2.829,8.3981 -9.905,10.3781 l -5.474,1.698 c -6.886,1.889 -10.095,4.813 -10.095,11.606 0,6.414 4.623,10.754 13.587,10.754 5.66,0 9.529,-1.321 11.982,-2.737 v -1.981 c -3.113,1.511 -7.452,2.643 -11.793,2.643 -7.736,0 -11.509,-3.397 -11.509,-8.586 0,-5.472 2.263,-7.737 8.678,-9.717 l 5.471,-1.604 c 7.547,-2.264 11.417,-4.81 11.417,-12.3592 0,-6.6046 -4.058,-11.982 -14.812,-11.982 -6.227,0 -10.851,1.6043 -13.868,3.2082"
         style="fill:#107790;fill-opacity:1;fill-rule:nonzero;stroke:none;stroke-width:0.1"
         id="path833" /><path
         d="m 235.807,87.141 v 2.077 c 3.49,-1.7008 7.357,-3.209 13.678,-3.209 9.529,0 12.643,4.3398 12.643,9.8109 0,6.2271 -2.829,8.3981 -9.905,10.3781 l -5.474,1.698 c -6.886,1.889 -10.095,4.813 -10.095,11.606 0,6.414 4.623,10.754 13.587,10.754 5.66,0 9.529,-1.321 11.982,-2.737 v -1.981 c -3.113,1.511 -7.452,2.643 -11.793,2.643 -7.736,0 -11.509,-3.397 -11.509,-8.586 0,-5.472 2.263,-7.737 8.678,-9.717 l 5.471,-1.604 c 7.547,-2.264 11.417,-4.81 11.417,-12.3592 0,-6.6046 -4.058,-11.982 -14.812,-11.982 -6.227,0 -10.851,1.6043 -13.868,3.2082 z"
         style="fill:none;stroke:#107790;stroke-width:1;stroke-linecap:butt;stroke-linejoin:miter;stroke-miterlimit:10;stroke-dasharray:none;stroke-opacity:1"
         id="path835" /><path
         d="m 276,110.066 h 31.699 c 0,11.321 -4.529,18.209 -14.905,18.209 -8.964,0 -16.038,-5.849 -16.794,-18.209 z m -2.453,-3.585 v 1.037 c 0,15.472 8.586,22.738 19.34,22.738 12.076,0 17.36,-7.925 17.36,-21.037 v -1.134 h -34.342 v -1.604 c 0,-13.5869 5.945,-20.472 18.87,-20.472 6.037,0 10.754,1.5082 13.774,2.8308 V 87.048 c -2.736,-1.6039 -7.549,-3.1152 -14.057,-3.1152 -13.963,0 -20.945,7.7363 -20.945,22.5482"
         style="fill:#107790;fill-opacity:1;fill-rule:nonzero;stroke:none;stroke-width:0.1"
         id="path837" /><path
         d="m 276,110.066 h 31.699 c 0,11.321 -4.529,18.209 -14.905,18.209 -8.964,0 -16.038,-5.849 -16.794,-18.209 z m -2.453,-3.585 v 1.037 c 0,15.472 8.586,22.738 19.34,22.738 12.076,0 17.36,-7.925 17.36,-21.037 v -1.134 h -34.342 v -1.604 c 0,-13.5869 5.945,-20.472 18.87,-20.472 6.037,0 10.754,1.5082 13.774,2.8308 V 87.048 c -2.736,-1.6039 -7.549,-3.1152 -14.057,-3.1152 -13.963,0 -20.945,7.7363 -20.945,22.5482 z"
         style="fill:none;stroke:#107790;stroke-width:1;stroke-linecap:butt;stroke-linejoin:miter;stroke-miterlimit:10;stroke-dasharray:none;stroke-opacity:1"
         id="path839" /><path
         d="m 322.232,129.597 h 2.264 v -4.437 h 0.19 c 5.565,3.398 11.886,5.096 17.548,5.096 8.301,0 13.019,-3.303 13.019,-11.792 V 84.5949 h -2.358 v 33.4911 c 0,7.452 -3.585,10.095 -11.512,10.095 -5.47,0 -11.32,-1.699 -16.792,-5.191 V 84.5949 h -2.359 v 45.0021"
         style="fill:#107790;fill-opacity:1;fill-rule:nonzero;stroke:none;stroke-width:0.1"
         id="path841" /><path
         d="m 322.232,129.597 h 2.264 v -4.437 h 0.19 c 5.565,3.398 11.886,5.096 17.548,5.096 8.301,0 13.019,-3.303 13.019,-11.792 V 84.5949 h -2.358 v 33.4911 c 0,7.452 -3.585,10.095 -11.512,10.095 -5.47,0 -11.32,-1.699 -16.792,-5.191 V 84.5949 h -2.359 z"
         style="fill:none;stroke:#107790;stroke-width:1;stroke-linecap:butt;stroke-linejoin:miter;stroke-miterlimit:10;stroke-dasharray:none;stroke-opacity:1"
         id="path843" /><path
         d="M 0.589844,77.2031 H 4.45859 L 27.5727,18.616 h 0.1878 l 23.2086,58.5871 h 3.8684 V 15.1238 H 52.3848 V 74.3719 H 52.1957 L 28.7984,15.1238 H 26.5348 L 3.04297,74.3719 V 15.1238 H 0.589844 v 62.0793"
         style="fill:#107790;fill-opacity:1;fill-rule:nonzero;stroke:none;stroke-width:0.1"
         id="path845" /><path
         d="M 0.589844,77.2031 H 4.45859 L 27.5727,18.616 h 0.1878 l 23.2086,58.5871 h 3.8684 V 15.1238 H 52.3848 V 74.3719 H 52.1957 L 28.7984,15.1238 H 26.5348 L 3.04297,74.3719 V 15.1238 H 0.589844 Z"
         style="fill:none;stroke:#107790;stroke-width:1;stroke-linecap:butt;stroke-linejoin:miter;stroke-miterlimit:10;stroke-dasharray:none;stroke-opacity:1"
         id="path847" /><path
         d="M 95.6953,20.9738 V 38.616 L 82.016,37.0129 C 73.9023,36.2578 70.3168,32.8621 70.3168,26.3512 c 0,-6.2282 4.4348,-10.1903 11.8879,-10.1903 6.3207,0 10.8496,2.3582 13.4906,4.8129 z m -27.8308,5.1891 c 0,7.6422 4.4335,11.793 13.5847,12.8312 l 14.2461,1.5079 v 7.0761 c 0,8.1129 -3.8676,10.943 -11.9812,10.943 -4.3403,0 -8.3024,-0.9422 -11.7926,-2.0742 v 1.8851 c 3.7734,1.511 7.9242,2.2668 12.5469,2.2668 8.68,0 13.775,-3.5847 13.775,-12.5476 V 14.934 h -2.2649 l -0.1887,4.059 h -0.0945 c -2.0758,-1.9801 -6.7926,-4.718 -13.8683,-4.718 -8.3969,0 -13.9625,4.5301 -13.9625,11.8879"
         style="fill:#107790;fill-opacity:1;fill-rule:nonzero;stroke:none;stroke-width:0.1"
         id="path849" /><path
         d="M 95.6953,20.9738 V 38.616 L 82.016,37.0129 C 73.9023,36.2578 70.3168,32.8621 70.3168,26.3512 c 0,-6.2282 4.4348,-10.1903 11.8879,-10.1903 6.3207,0 10.8496,2.3582 13.4906,4.8129 z m -27.8308,5.1891 c 0,7.6422 4.4335,11.793 13.5847,12.8312 l 14.2461,1.5079 v 7.0761 c 0,8.1129 -3.8676,10.943 -11.9812,10.943 -4.3403,0 -8.3024,-0.9422 -11.7926,-2.0742 v 1.8851 c 3.7734,1.511 7.9242,2.2668 12.5469,2.2668 8.68,0 13.775,-3.5847 13.775,-12.5476 V 14.934 h -2.2649 l -0.1887,4.059 h -0.0945 c -2.0758,-1.9801 -6.7926,-4.718 -13.8683,-4.718 -8.3969,0 -13.9625,4.5301 -13.9625,11.8879 z"
         style="fill:none;stroke:#107790;stroke-width:1;stroke-linecap:butt;stroke-linejoin:miter;stroke-miterlimit:10;stroke-dasharray:none;stroke-opacity:1"
         id="path851" /><path
         d="m 109.473,1.44414 v 1.7918 c 1.321,-0.37696 3.019,-0.65899 4.717,-0.65899 5.283,0 7.17,2.92422 9.057,7.73595 l 3.397,8.868 -17.926,40.5679 h 2.453 L 127.775,22.293 h 0.189 l 15.285,37.4558 h 2.452 L 125.417,9.93516 C 123.341,4.27305 120.983,0.5 114.473,0.5 c -1.981,0 -3.774,0.473047 -5,0.94414"
         style="fill:#107790;fill-opacity:1;fill-rule:nonzero;stroke:none;stroke-width:0.1"
         id="path853" /><path
         d="m 109.473,1.44414 v 1.7918 c 1.321,-0.37696 3.019,-0.65899 4.717,-0.65899 5.283,0 7.17,2.92422 9.057,7.73595 l 3.397,8.868 -17.926,40.5679 h 2.453 L 127.775,22.293 h 0.189 l 15.285,37.4558 h 2.452 L 125.417,9.93516 C 123.341,4.27305 120.983,0.5 114.473,0.5 c -1.981,0 -3.774,0.473047 -5,0.94414 z"
         style="fill:none;stroke:#107790;stroke-width:1;stroke-linecap:butt;stroke-linejoin:miter;stroke-miterlimit:10;stroke-dasharray:none;stroke-opacity:1"
         id="path855" /><path
         d="m 155.232,40.409 h 31.701 c 0,11.3199 -4.53,18.2082 -14.908,18.2082 -8.962,0 -16.038,-5.8512 -16.793,-18.2082 z m -2.452,-3.5852 v 1.0371 c 0,15.4719 8.585,22.7379 19.34,22.7379 12.075,0 17.36,-7.925 17.36,-21.0398 v -1.1309 h -34.342 v -1.6043 c 0,-13.5867 5.944,-20.475 18.868,-20.475 6.039,0 10.757,1.5114 13.774,2.8321 v -1.7918 c -2.736,-1.6039 -7.547,-3.1141 -14.056,-3.1141 -13.963,0 -20.944,7.7371 -20.944,22.5488"
         style="fill:#107790;fill-opacity:1;fill-rule:nonzero;stroke:none;stroke-width:0.1"
         id="path857" /><path
         d="m 155.232,40.409 h 31.701 c 0,11.3199 -4.53,18.2082 -14.908,18.2082 -8.962,0 -16.038,-5.8512 -16.793,-18.2082 z m -2.452,-3.5852 v 1.0371 c 0,15.4719 8.585,22.7379 19.34,22.7379 12.075,0 17.36,-7.925 17.36,-21.0398 v -1.1309 h -34.342 v -1.6043 c 0,-13.5867 5.944,-20.475 18.868,-20.475 6.039,0 10.757,1.5114 13.774,2.8321 v -1.7918 c -2.736,-1.6039 -7.547,-3.1141 -14.056,-3.1141 -13.963,0 -20.944,7.7371 -20.944,22.5488 z"
         style="fill:none;stroke:#107790;stroke-width:1;stroke-linecap:butt;stroke-linejoin:miter;stroke-miterlimit:10;stroke-dasharray:none;stroke-opacity:1"
         id="path859" /><path
         d="m 201.276,59.9371 h 2.358 V 54.182 h 0.188 c 2.831,3.0211 7.925,6.2282 14.058,6.2282 0.944,0 1.98,-0.0973 2.547,-0.284 v -2.1703 c -0.755,0.189 -1.792,0.3761 -2.64,0.3761 -5.755,0 -10.85,-2.8289 -14.058,-6.414 V 14.934 h -2.453 v 45.0031"
         style="fill:#107790;fill-opacity:1;fill-rule:nonzero;stroke:none;stroke-width:0.1"
         id="path861" /><path
         d="m 201.276,59.9371 h 2.358 V 54.182 h 0.188 c 2.831,3.0211 7.925,6.2282 14.058,6.2282 0.944,0 1.98,-0.0973 2.547,-0.284 v -2.1703 c -0.755,0.189 -1.792,0.3761 -2.64,0.3761 -5.755,0 -10.85,-2.8289 -14.058,-6.414 V 14.934 h -2.453 z"
         style="fill:none;stroke:#107790;stroke-width:1;stroke-linecap:butt;stroke-linejoin:miter;stroke-miterlimit:10;stroke-dasharray:none;stroke-opacity:1"
         id="path863" /></g><path
       d="m 4.53906,157.938 c 2.50352,0 4.53399,2.029 4.53399,4.534 v 92.951 l 13.10115,-22.67 v -70.281 c 0,-2.505 2.0328,-4.534 4.5367,-4.534 2.5039,0 4.5356,2.029 4.5356,4.534 v 54.587 l 20.4621,-35.404 5.2394,-9.063 7.159,-12.386 c 0.8399,-1.458 2.3621,-2.27 3.9301,-2.27 0.7703,0.002 1.5535,0.199 2.266,0.611 2.168,1.254 2.9117,4.028 1.6582,6.197 l -9.7761,16.912 -5.2372,9.062 -25.7015,44.468 -9.0723,15.694 -13.71014,23.722 c -1.02773,1.779 -3.12148,2.643 -5.10429,2.111 C 1.38047,276.182 0,274.384 0,272.333 V 162.472 c 0,-2.505 2.03086,-4.534 4.53906,-4.534"
       style="fill:#143a4f;fill-opacity:1;fill-rule:nonzero;stroke:none;stroke-width:0.1"
       id="path865" /><path
       d="m 130.523,157.938 c 2.505,0 4.535,2.029 4.535,4.534 v 109.861 c 0,2.505 -2.03,4.536 -4.535,4.536 -2.506,0 -4.535,-2.031 -4.535,-4.536 V 162.472 c 0,-2.505 2.029,-4.534 4.535,-4.534"
       style="fill:#143a4f;fill-opacity:1;fill-rule:nonzero;stroke:none;stroke-width:0.1"
       id="path867" /><path
       d="m 31.2465,255.423 31.5488,-54.586 5.2399,-9.065 18.2461,-31.566 c 0.8398,-1.458 2.3625,-2.27 3.9296,-2.27 0.7719,0 1.5532,0.199 2.2664,0.611 2.1704,1.254 2.9118,4.028 1.6582,6.197 l -20.8625,36.093 31.55,54.586 v -92.951 c 0,-2.505 2.031,-4.534 4.537,-4.534 2.503,0 4.533,2.029 4.533,4.534 v 109.861 c 0,2.051 -1.378,3.849 -3.361,4.38 -1.986,0.535 -4.075,-0.332 -5.101,-2.111 L 68.0352,209.901 30.6371,274.602 c -0.0258,0.044 -0.059,0.078 -0.0867,0.121 -0.0875,0.14 -0.1859,0.269 -0.2848,0.395 -0.0859,0.111 -0.1718,0.223 -0.2672,0.324 -0.1004,0.105 -0.2129,0.2 -0.3214,0.296 -0.1122,0.097 -0.2184,0.195 -0.3387,0.28 -0.1192,0.086 -0.2461,0.155 -0.3703,0.227 -0.1258,0.072 -0.2492,0.147 -0.3817,0.206 -0.1324,0.063 -0.2726,0.108 -0.4125,0.154 -0.1386,0.049 -0.2738,0.097 -0.4211,0.131 -0.1336,0.033 -0.2718,0.049 -0.4074,0.069 -0.1633,0.022 -0.3226,0.043 -0.4883,0.05 -0.05,10e-4 -0.0972,0.014 -0.1461,0.014 -0.0875,0 -0.1683,-0.021 -0.2535,-0.026 -0.1664,-0.009 -0.3297,-0.022 -0.4926,-0.05 -0.1425,-0.023 -0.2832,-0.058 -0.4222,-0.095 -0.1426,-0.038 -0.2832,-0.08 -0.4203,-0.131 -0.1504,-0.058 -0.3008,-0.128 -0.4485,-0.203 -0.0781,-0.037 -0.1586,-0.06 -0.2336,-0.105 -0.0425,-0.024 -0.0765,-0.059 -0.1211,-0.086 -0.1378,-0.088 -0.2683,-0.186 -0.3953,-0.286 -0.1093,-0.085 -0.2199,-0.169 -0.3215,-0.265 -0.105,-0.101 -0.2003,-0.211 -0.2953,-0.321 -0.0996,-0.111 -0.1972,-0.222 -0.282,-0.342 -0.0852,-0.117 -0.1539,-0.242 -0.2258,-0.369 -0.0742,-0.123 -0.1488,-0.249 -0.2078,-0.38 -0.0582,-0.136 -0.1047,-0.274 -0.1519,-0.412 -0.0473,-0.139 -0.0973,-0.277 -0.1313,-0.421 -0.034,-0.134 -0.048,-0.273 -0.0687,-0.411 -0.0243,-0.161 -0.0446,-0.321 -0.05,-0.486 -0.025,-0.819 0.1527,-1.655 0.5941,-2.416 l 8.4629,-14.641"
       style="fill:#143a4f;fill-opacity:1;fill-rule:nonzero;stroke:none;stroke-width:0.1"
       id="path869" /></g></svg>
